<svg width="30" height="18" viewBox="0 0 30 18" fill="none" xmlns="http://www.w3.org/2000/svg">
<g clip-path="url(#clip0_4_120)">
<path d="M15 0C11 0 8.49996 1.98318 7.5 5.94942C9 3.96624 10.75 3.22256 12.75 3.71839C13.8911 4.00122 14.7067 4.82217 15.6095 5.73073C17.0802 7.211 18.7822 8.92413 22.5 8.92413C26.5 8.92413 29 6.94095 30 2.97471C28.5 4.95789 26.75 5.70157 24.75 5.20574C23.6089 4.92291 22.7933 4.10196 21.8905 3.1934C20.4198 1.71313 18.7178 0 15 0ZM7.5 8.92413C3.50004 8.92413 0.999961 10.9073 0 14.8735C1.5 12.8904 3.24996 12.1467 5.25 12.6425C6.39105 12.9253 7.20668 13.7463 8.10949 14.6549C9.58019 16.1351 11.2822 17.8483 15 17.8483C19 17.8483 21.5 15.8651 22.5 11.8988C21 13.882 19.25 14.6257 17.25 14.1299C16.1089 13.847 15.2933 13.0261 14.3905 12.1175C12.9198 10.6373 11.2178 8.92413 7.5 8.92413Z" fill="url(#paint0_linear_4_120)"/>
</g>
<defs>
<linearGradient id="paint0_linear_4_120" x1="-0.8334" y1="5.71144" x2="24.9666" y2="20.7137" gradientUnits="userSpaceOnUse">
<stop stop-color="#2298BD"/>
<stop offset="1" stop-color="#0ED7B5"/>
</linearGradient>
<clipPath id="clip0_4_120">
<rect width="30" height="17.8947" fill="white"/>
</clipPath>
</defs>
</svg>
