<svg width="30" height="30" viewBox="0 0 30 30" fill="none" xmlns="http://www.w3.org/2000/svg">
<g clip-path="url(#clip0_4_124)">
<path d="M25.0195 0H4.98047C2.22983 0 0 2.25584 0 5.03855V24.5526C0 27.3353 2.22983 29.5911 4.98047 29.5911H25.0195C27.7702 29.5911 30 27.3353 30 24.5526V5.03855C30 2.25584 27.7702 0 25.0195 0Z" fill="#470137"/>
<path d="M15.7709 7.78191L12.0275 14.0324L16.0324 20.6697C16.0582 20.7162 16.0653 20.7707 16.0526 20.8224C16.0464 20.8445 16.033 20.8499 16.0125 20.8507L15.9898 20.8504L15.9621 20.8497C15.9471 20.8497 15.9303 20.8504 15.9117 20.8535H13.0242L12.9675 20.8525C12.8119 20.8484 12.6997 20.8258 12.6314 20.7104C12.3642 20.1838 12.0959 19.6579 11.8263 19.1325C11.5852 18.664 11.3375 18.1989 11.0834 17.7375L10.9711 17.5343C10.6671 16.9877 10.3685 16.438 10.0755 15.8852H10.0554C9.7848 16.4322 9.50637 16.9751 9.22019 17.5139C8.93156 18.0569 8.64644 18.5965 8.36484 19.1325C8.08307 19.6689 7.79461 20.2017 7.49953 20.7308C7.45207 20.8386 7.3732 20.8612 7.26339 20.8648L7.21769 20.8656H4.46062L4.44867 20.8659L4.40929 20.8695C4.38738 20.8708 4.37425 20.866 4.37004 20.8326C4.36247 20.783 4.37323 20.7322 4.40027 20.6901L8.28433 14.236L4.50082 7.76176C4.46062 7.70769 4.45394 7.66359 4.48066 7.62945C4.49551 7.61205 4.51416 7.59839 4.53513 7.58955C4.5561 7.5807 4.57881 7.57691 4.60148 7.57847H7.43906C7.50094 7.57504 7.5628 7.58549 7.62023 7.60906C7.66828 7.63668 7.70964 7.67497 7.74093 7.72109C7.98246 8.26407 8.25082 8.80705 8.54601 9.34979C8.83892 9.88911 9.13745 10.4253 9.44156 10.9582C9.74101 11.4829 10.0196 12.0195 10.2768 12.5666H10.2969C10.5604 12.0196 10.8321 11.4766 11.1119 10.9379C11.3868 10.4086 11.6686 9.8757 11.9571 9.33959C12.242 8.81037 12.5204 8.27762 12.7923 7.74148C12.8078 7.69122 12.8354 7.64569 12.8728 7.60906C12.9225 7.5836 12.9784 7.57299 13.0338 7.57847H15.6702C15.6944 7.57236 15.72 7.57437 15.743 7.58421C15.766 7.59405 15.7852 7.61118 15.7978 7.63303C15.8103 7.65488 15.8155 7.68026 15.8126 7.70535C15.8097 7.73045 15.7988 7.7539 15.7815 7.77219L15.771 7.78215L15.7709 7.78191ZM21.6853 21.1161L21.5466 21.1176C20.6202 21.1319 19.7024 20.9372 18.8598 20.5476C18.0749 20.1801 17.4187 19.5801 16.9781 18.8271C16.5339 18.0807 16.3058 17.1505 16.2943 16.037L16.2939 15.9463C16.2863 15.0118 16.5224 14.0919 16.9782 13.2792C17.4345 12.4747 18.0996 11.8119 18.9015 11.3626L18.9705 11.3247C19.8424 10.836 20.8957 10.5916 22.1301 10.5916L22.1841 10.5922L22.2457 10.5943L22.3148 10.5973L22.3917 10.6018L22.5209 10.6111L22.6671 10.6229L22.7741 10.6324V6.6215C22.7741 6.52666 22.8144 6.479 22.8948 6.479H25.4306C25.447 6.47662 25.4637 6.47814 25.4795 6.48343C25.4952 6.48873 25.5095 6.49765 25.5212 6.5095C25.5329 6.52135 25.5417 6.5358 25.5469 6.5517C25.5522 6.5676 25.5537 6.58452 25.5513 6.60111V18.6338C25.5513 18.8358 25.5591 19.0535 25.5745 19.2863L25.612 19.8145L25.6319 20.12C25.6344 20.1623 25.6242 20.2044 25.6027 20.2407C25.5811 20.277 25.5492 20.306 25.5111 20.3236C24.8569 20.5996 24.1756 20.8043 23.4785 20.9343C22.8868 21.0448 22.287 21.1056 21.6853 21.1161ZM22.7741 18.593V13.0348C22.6653 13.005 22.5543 12.9846 22.4421 12.9738C22.305 12.9598 22.1673 12.953 22.0295 12.9534C21.5411 12.9485 21.0585 13.0601 20.6208 13.2792C20.1944 13.4936 19.8303 13.8163 19.5642 14.2157C19.2985 14.6089 19.1611 15.1222 19.1521 15.7557L19.1516 15.8242C19.1418 16.2679 19.2134 16.7097 19.3629 17.1271C19.4845 17.4634 19.6769 17.7691 19.9266 18.023C20.1655 18.2565 20.4548 18.4308 20.7717 18.5319C21.1064 18.6416 21.4563 18.6966 21.8081 18.6949C21.9959 18.6949 22.1702 18.6881 22.3314 18.6744C22.4599 18.6647 22.5873 18.6432 22.712 18.6104L22.7741 18.593Z" fill="#FF61F6"/>
</g>
<defs>
<clipPath id="clip0_4_124">
<rect width="30" height="29.6386" fill="white"/>
</clipPath>
</defs>
</svg>
