<svg width="30" height="27" viewBox="0 0 30 27" fill="none" xmlns="http://www.w3.org/2000/svg">
<path d="M24.666 8.6432C24.3467 8.53377 24.0247 8.43238 23.7004 8.33915C23.7548 8.1167 23.805 7.89694 23.8495 7.68105C24.5805 4.13579 24.1027 1.27965 22.4704 0.339274C20.9053 -0.562233 18.3458 0.377793 15.7609 2.62535C15.5061 2.84726 15.257 3.07556 15.0138 3.31003C14.851 3.15411 14.6853 3.00122 14.5168 2.85143C11.8077 0.448274 9.09223 -0.564574 7.46168 0.378495C5.89805 1.28281 5.43504 3.96778 6.09316 7.32771C6.15864 7.66047 6.23257 7.99152 6.31488 8.32054C5.93051 8.42965 5.55961 8.54579 5.20465 8.66943C2.0284 9.77582 0 11.5096 0 13.3081C0 15.1655 2.17758 17.0286 5.48578 18.1583C5.75398 18.2495 6.02442 18.334 6.29684 18.4118C6.20836 18.7662 6.12982 19.1229 6.06129 19.4817C5.43387 22.7833 5.92383 25.4048 7.48324 26.3034C9.09387 27.2313 11.7971 26.2776 14.4293 23.9788C14.6427 23.7919 14.8515 23.5997 15.0553 23.4024C15.3187 23.6563 15.5891 23.9028 15.8663 24.1416C18.416 26.3336 20.9341 27.2187 22.492 26.3177C24.1011 25.387 24.6241 22.5708 23.9452 19.1445C23.8917 18.876 23.8317 18.6089 23.7653 18.3434C23.9551 18.2872 24.1414 18.2294 24.3231 18.1692C27.7623 17.0308 30 15.1904 30 13.3081C30 11.5031 27.9061 9.75756 24.666 8.6432ZM23.9201 16.9539C23.756 17.0081 23.5877 17.0605 23.4162 17.1114C23.0365 15.9105 22.5241 14.6337 21.8971 13.3143C22.4954 12.0264 22.9881 10.7658 23.3571 9.57281C23.664 9.66156 23.9618 9.7551 24.2489 9.8538C27.0251 10.8087 28.7184 12.2203 28.7184 13.3081C28.7184 14.4667 26.8896 15.9708 23.9201 16.9539ZM22.688 19.3931C22.9882 20.9081 23.031 22.278 22.8321 23.3489C22.6535 24.3112 22.2942 24.9526 21.8498 25.2096C20.9045 25.7564 18.8827 25.0457 16.7021 23.171C16.4444 22.949 16.1928 22.7198 15.9478 22.4838C16.7932 21.5602 17.638 20.4864 18.4625 19.2939C19.9129 19.1653 21.283 18.955 22.5255 18.6681C22.5854 18.9085 22.6396 19.1502 22.688 19.3931ZM10.2277 25.1151C9.30398 25.441 8.56828 25.4503 8.12355 25.1942C7.17727 24.6489 6.78387 22.544 7.32047 19.7205C7.38426 19.3869 7.45729 19.055 7.53949 18.7254C8.76832 18.9971 10.1285 19.1924 11.5822 19.3101C12.4124 20.4771 13.2816 21.5496 14.1575 22.4888C13.9714 22.6688 13.7808 22.8442 13.586 23.0147C12.422 24.0312 11.2556 24.7524 10.2277 25.1151ZM5.90039 16.9468C4.43754 16.4472 3.22945 15.798 2.40141 15.0896C1.65727 14.453 1.28168 13.8209 1.28168 13.3081C1.28168 12.2167 2.91023 10.8246 5.62652 9.8785C5.95617 9.76377 6.30117 9.65547 6.65918 9.55384C7.03465 10.7738 7.52707 12.0494 8.12133 13.3392C7.51934 14.6482 7.01988 15.9441 6.64078 17.1785C6.39212 17.1073 6.14525 17.0301 5.90039 16.9468ZM7.35094 7.08172C6.78715 4.20311 7.16156 2.03165 8.10387 1.48665C9.10746 0.906169 11.3268 1.7338 13.6659 3.8089C13.8185 3.94453 13.9685 4.0829 14.1161 4.22395C13.2444 5.15906 12.3832 6.22365 11.5604 7.38367C10.1495 7.51433 8.79891 7.72414 7.55719 8.00524C7.48068 7.69922 7.41191 7.39132 7.35094 7.08184V7.08172ZM20.2916 10.2742C19.9983 9.76809 19.6941 9.26832 19.3793 8.77527C20.3365 8.89621 21.2536 9.05673 22.1148 9.25295C21.8563 10.0809 21.534 10.9465 21.1547 11.834C20.8774 11.3084 20.5897 10.7883 20.2916 10.2742ZM15.0144 5.13904C15.6055 5.77887 16.1975 6.49317 16.7798 7.26823C15.5986 7.2125 14.4154 7.21226 13.2341 7.26753C13.817 6.49961 14.4141 5.78625 15.0144 5.13904ZM9.70336 10.283C9.40903 10.793 9.12664 11.3098 8.85645 11.8329C8.48332 10.9486 8.16398 10.0791 7.90324 9.23937C8.75918 9.04806 9.67195 8.89165 10.623 8.77293C10.3047 9.26899 9.99805 9.77245 9.70336 10.2829V10.283ZM10.6504 17.9343C9.66774 17.8248 8.74125 17.6764 7.88555 17.4903C8.15039 16.6356 8.47676 15.7475 8.85797 14.8443C9.12924 15.3678 9.41279 15.8849 9.7084 16.3951C10.0124 16.9196 10.3271 17.4334 10.6504 17.9343ZM15.0498 21.5673C14.4423 20.9126 13.8364 20.1882 13.2448 19.4092C13.8192 19.4317 14.4048 19.4431 15 19.4431C15.6115 19.4431 16.2159 19.4294 16.8109 19.403C16.2267 20.1961 15.6369 20.9215 15.0498 21.5673ZM21.1668 14.7982C21.5678 15.7114 21.9057 16.5947 22.1741 17.4348C21.3043 17.6331 20.3652 17.7928 19.3757 17.9114C19.6927 17.4092 19.9998 16.9007 20.2966 16.3863C20.5984 15.8635 20.8885 15.3339 21.1668 14.7982ZM19.1865 15.7466C18.7321 16.5353 18.2521 17.309 17.7473 18.0665C16.833 18.1312 15.9166 18.1634 15 18.1629C14.0664 18.1629 13.1583 18.1338 12.2838 18.0772C11.7659 17.3214 11.2767 16.5463 10.8175 15.7536H10.8176C10.3605 14.9651 9.93347 14.1595 9.53754 13.3386C9.93246 12.5176 10.3581 11.7116 10.8137 10.9225L10.8136 10.9226C11.269 10.1333 11.7542 9.36154 12.2682 8.60902C13.1604 8.54158 14.0753 8.50646 14.9999 8.50646H15C15.9288 8.50646 16.8449 8.54193 17.7368 8.60984C18.2456 9.36123 18.7278 10.1303 19.1823 10.9157C19.6394 11.7031 20.0707 12.5051 20.4756 13.3205C20.0749 14.1442 19.6449 14.9535 19.1865 15.7466ZM21.8303 1.44848C22.8348 2.02732 23.2255 4.36152 22.5943 7.42254C22.554 7.61783 22.5088 7.81675 22.4596 8.01847C21.2148 7.73139 19.8633 7.51796 18.4482 7.38531C17.6239 6.21253 16.7698 5.14629 15.9123 4.22325C16.137 4.00683 16.3671 3.79602 16.6023 3.59102C18.8171 1.66543 20.8871 0.905116 21.8303 1.44848ZM15 10.6317C16.4795 10.6317 17.6789 11.83 17.6789 13.3081C17.6789 14.7862 16.4795 15.9845 15 15.9845C13.5205 15.9845 12.3211 14.7862 12.3211 13.3081C12.3211 11.83 13.5205 10.6317 15 10.6317Z" fill="#00D8FF"/>
</svg>
